<mxfile host="app.diagrams.net" modified="2024-05-16T17:45:29.331Z" agent="Mozilla/5.0 (Macintosh; Intel Mac OS X 10_15_7) AppleWebKit/605.1.15 (KHTML, like Gecko) Version/17.2.1 Safari/605.1.15" etag="Onu9lFEWcwW1S83B2j6V" version="24.4.3" type="github">
  <diagram name="PÃ¡gina-1" id="NCnbCse7kmVir6H01Hc5">
    <mxGraphModel dx="1500" dy="2080" grid="1" gridSize="10" guides="1" tooltips="1" connect="1" arrows="1" fold="1" page="1" pageScale="1" pageWidth="827" pageHeight="1169" math="0" shadow="0">
      <root>
        <mxCell id="0" />
        <mxCell id="1" parent="0" />
        <mxCell id="rGqXqtwCD-UJcYqUSk-k-12" value="" style="edgeStyle=orthogonalEdgeStyle;rounded=0;orthogonalLoop=1;jettySize=auto;html=1;" edge="1" parent="1" source="rGqXqtwCD-UJcYqUSk-k-1" target="rGqXqtwCD-UJcYqUSk-k-2">
          <mxGeometry relative="1" as="geometry" />
        </mxCell>
        <mxCell id="rGqXqtwCD-UJcYqUSk-k-1" value="INICIO" style="ellipse;whiteSpace=wrap;html=1;" vertex="1" parent="1">
          <mxGeometry x="161" y="80" width="120" height="80" as="geometry" />
        </mxCell>
        <mxCell id="rGqXqtwCD-UJcYqUSk-k-13" value="" style="edgeStyle=orthogonalEdgeStyle;rounded=0;orthogonalLoop=1;jettySize=auto;html=1;" edge="1" parent="1" source="rGqXqtwCD-UJcYqUSk-k-2" target="rGqXqtwCD-UJcYqUSk-k-11">
          <mxGeometry relative="1" as="geometry" />
        </mxCell>
        <mxCell id="rGqXqtwCD-UJcYqUSk-k-2" value="int n&lt;div&gt;int k&lt;/div&gt;" style="shape=parallelogram;perimeter=parallelogramPerimeter;whiteSpace=wrap;html=1;fixedSize=1;" vertex="1" parent="1">
          <mxGeometry x="161" y="200" width="120" height="60" as="geometry" />
        </mxCell>
        <mxCell id="rGqXqtwCD-UJcYqUSk-k-23" value="" style="edgeStyle=orthogonalEdgeStyle;rounded=0;orthogonalLoop=1;jettySize=auto;html=1;" edge="1" parent="1" source="rGqXqtwCD-UJcYqUSk-k-3" target="rGqXqtwCD-UJcYqUSk-k-15">
          <mxGeometry relative="1" as="geometry" />
        </mxCell>
        <mxCell id="rGqXqtwCD-UJcYqUSk-k-31" style="edgeStyle=orthogonalEdgeStyle;rounded=0;orthogonalLoop=1;jettySize=auto;html=1;exitX=0.5;exitY=1;exitDx=0;exitDy=0;entryX=0.5;entryY=0;entryDx=0;entryDy=0;" edge="1" parent="1" source="rGqXqtwCD-UJcYqUSk-k-3" target="rGqXqtwCD-UJcYqUSk-k-5">
          <mxGeometry relative="1" as="geometry" />
        </mxCell>
        <mxCell id="rGqXqtwCD-UJcYqUSk-k-3" value="n = 1" style="rhombus;whiteSpace=wrap;html=1;" vertex="1" parent="1">
          <mxGeometry x="181" y="380" width="80" height="80" as="geometry" />
        </mxCell>
        <mxCell id="rGqXqtwCD-UJcYqUSk-k-4" value="NO" style="text;html=1;align=center;verticalAlign=middle;whiteSpace=wrap;rounded=0;fontSize=16;" vertex="1" parent="1">
          <mxGeometry x="231" y="460" width="30" height="30" as="geometry" />
        </mxCell>
        <mxCell id="rGqXqtwCD-UJcYqUSk-k-24" value="" style="edgeStyle=orthogonalEdgeStyle;rounded=0;orthogonalLoop=1;jettySize=auto;html=1;" edge="1" parent="1" source="rGqXqtwCD-UJcYqUSk-k-5" target="rGqXqtwCD-UJcYqUSk-k-16">
          <mxGeometry relative="1" as="geometry" />
        </mxCell>
        <mxCell id="rGqXqtwCD-UJcYqUSk-k-32" value="" style="edgeStyle=orthogonalEdgeStyle;rounded=0;orthogonalLoop=1;jettySize=auto;html=1;" edge="1" parent="1" source="rGqXqtwCD-UJcYqUSk-k-5" target="rGqXqtwCD-UJcYqUSk-k-6">
          <mxGeometry relative="1" as="geometry" />
        </mxCell>
        <mxCell id="rGqXqtwCD-UJcYqUSk-k-5" value="n = 2" style="rhombus;whiteSpace=wrap;html=1;" vertex="1" parent="1">
          <mxGeometry x="181" y="480" width="80" height="80" as="geometry" />
        </mxCell>
        <mxCell id="rGqXqtwCD-UJcYqUSk-k-25" value="" style="edgeStyle=orthogonalEdgeStyle;rounded=0;orthogonalLoop=1;jettySize=auto;html=1;" edge="1" parent="1" source="rGqXqtwCD-UJcYqUSk-k-6" target="rGqXqtwCD-UJcYqUSk-k-17">
          <mxGeometry relative="1" as="geometry" />
        </mxCell>
        <mxCell id="rGqXqtwCD-UJcYqUSk-k-33" value="" style="edgeStyle=orthogonalEdgeStyle;rounded=0;orthogonalLoop=1;jettySize=auto;html=1;" edge="1" parent="1" source="rGqXqtwCD-UJcYqUSk-k-6" target="rGqXqtwCD-UJcYqUSk-k-7">
          <mxGeometry relative="1" as="geometry" />
        </mxCell>
        <mxCell id="rGqXqtwCD-UJcYqUSk-k-6" value="n = 3" style="rhombus;whiteSpace=wrap;html=1;" vertex="1" parent="1">
          <mxGeometry x="181" y="580" width="80" height="80" as="geometry" />
        </mxCell>
        <mxCell id="rGqXqtwCD-UJcYqUSk-k-26" value="" style="edgeStyle=orthogonalEdgeStyle;rounded=0;orthogonalLoop=1;jettySize=auto;html=1;" edge="1" parent="1" source="rGqXqtwCD-UJcYqUSk-k-7" target="rGqXqtwCD-UJcYqUSk-k-18">
          <mxGeometry relative="1" as="geometry" />
        </mxCell>
        <mxCell id="rGqXqtwCD-UJcYqUSk-k-34" value="" style="edgeStyle=orthogonalEdgeStyle;rounded=0;orthogonalLoop=1;jettySize=auto;html=1;" edge="1" parent="1" source="rGqXqtwCD-UJcYqUSk-k-7" target="rGqXqtwCD-UJcYqUSk-k-8">
          <mxGeometry relative="1" as="geometry" />
        </mxCell>
        <mxCell id="rGqXqtwCD-UJcYqUSk-k-7" value="n = 4" style="rhombus;whiteSpace=wrap;html=1;" vertex="1" parent="1">
          <mxGeometry x="181" y="680" width="80" height="80" as="geometry" />
        </mxCell>
        <mxCell id="rGqXqtwCD-UJcYqUSk-k-27" value="" style="edgeStyle=orthogonalEdgeStyle;rounded=0;orthogonalLoop=1;jettySize=auto;html=1;" edge="1" parent="1" source="rGqXqtwCD-UJcYqUSk-k-8" target="rGqXqtwCD-UJcYqUSk-k-19">
          <mxGeometry relative="1" as="geometry" />
        </mxCell>
        <mxCell id="rGqXqtwCD-UJcYqUSk-k-35" value="" style="edgeStyle=orthogonalEdgeStyle;rounded=0;orthogonalLoop=1;jettySize=auto;html=1;" edge="1" parent="1" source="rGqXqtwCD-UJcYqUSk-k-8" target="rGqXqtwCD-UJcYqUSk-k-9">
          <mxGeometry relative="1" as="geometry" />
        </mxCell>
        <mxCell id="rGqXqtwCD-UJcYqUSk-k-8" value="n = 5" style="rhombus;whiteSpace=wrap;html=1;" vertex="1" parent="1">
          <mxGeometry x="181" y="780" width="80" height="80" as="geometry" />
        </mxCell>
        <mxCell id="rGqXqtwCD-UJcYqUSk-k-28" value="" style="edgeStyle=orthogonalEdgeStyle;rounded=0;orthogonalLoop=1;jettySize=auto;html=1;" edge="1" parent="1" source="rGqXqtwCD-UJcYqUSk-k-9" target="rGqXqtwCD-UJcYqUSk-k-20">
          <mxGeometry relative="1" as="geometry" />
        </mxCell>
        <mxCell id="rGqXqtwCD-UJcYqUSk-k-36" value="" style="edgeStyle=orthogonalEdgeStyle;rounded=0;orthogonalLoop=1;jettySize=auto;html=1;" edge="1" parent="1" source="rGqXqtwCD-UJcYqUSk-k-9" target="rGqXqtwCD-UJcYqUSk-k-10">
          <mxGeometry relative="1" as="geometry" />
        </mxCell>
        <mxCell id="rGqXqtwCD-UJcYqUSk-k-9" value="n = 6" style="rhombus;whiteSpace=wrap;html=1;" vertex="1" parent="1">
          <mxGeometry x="181" y="880" width="80" height="80" as="geometry" />
        </mxCell>
        <mxCell id="rGqXqtwCD-UJcYqUSk-k-29" value="" style="edgeStyle=orthogonalEdgeStyle;rounded=0;orthogonalLoop=1;jettySize=auto;html=1;" edge="1" parent="1" source="rGqXqtwCD-UJcYqUSk-k-10" target="rGqXqtwCD-UJcYqUSk-k-21">
          <mxGeometry relative="1" as="geometry" />
        </mxCell>
        <mxCell id="rGqXqtwCD-UJcYqUSk-k-37" value="" style="edgeStyle=orthogonalEdgeStyle;rounded=0;orthogonalLoop=1;jettySize=auto;html=1;" edge="1" parent="1" source="rGqXqtwCD-UJcYqUSk-k-10" target="rGqXqtwCD-UJcYqUSk-k-22">
          <mxGeometry relative="1" as="geometry" />
        </mxCell>
        <mxCell id="rGqXqtwCD-UJcYqUSk-k-10" value="n = 7" style="rhombus;whiteSpace=wrap;html=1;" vertex="1" parent="1">
          <mxGeometry x="181" y="980" width="80" height="80" as="geometry" />
        </mxCell>
        <mxCell id="rGqXqtwCD-UJcYqUSk-k-14" value="" style="edgeStyle=orthogonalEdgeStyle;rounded=0;orthogonalLoop=1;jettySize=auto;html=1;" edge="1" parent="1" source="rGqXqtwCD-UJcYqUSk-k-11" target="rGqXqtwCD-UJcYqUSk-k-3">
          <mxGeometry relative="1" as="geometry" />
        </mxCell>
        <mxCell id="rGqXqtwCD-UJcYqUSk-k-11" value="string espacio1" style="rounded=0;whiteSpace=wrap;html=1;" vertex="1" parent="1">
          <mxGeometry x="161" y="300" width="120" height="40" as="geometry" />
        </mxCell>
        <mxCell id="rGqXqtwCD-UJcYqUSk-k-38" style="edgeStyle=orthogonalEdgeStyle;rounded=0;orthogonalLoop=1;jettySize=auto;html=1;exitX=1;exitY=0.5;exitDx=0;exitDy=0;" edge="1" parent="1" source="rGqXqtwCD-UJcYqUSk-k-15">
          <mxGeometry relative="1" as="geometry">
            <mxPoint x="221" y="1110" as="targetPoint" />
            <Array as="points">
              <mxPoint x="641" y="420" />
              <mxPoint x="641" y="1110" />
              <mxPoint x="221" y="1110" />
            </Array>
          </mxGeometry>
        </mxCell>
        <mxCell id="rGqXqtwCD-UJcYqUSk-k-15" value="espacio1 = &quot;espacio&quot;" style="rounded=1;whiteSpace=wrap;html=1;" vertex="1" parent="1">
          <mxGeometry x="341" y="400" width="180" height="40" as="geometry" />
        </mxCell>
        <mxCell id="rGqXqtwCD-UJcYqUSk-k-39" style="edgeStyle=orthogonalEdgeStyle;rounded=0;orthogonalLoop=1;jettySize=auto;html=1;exitX=1;exitY=0.5;exitDx=0;exitDy=0;" edge="1" parent="1" source="rGqXqtwCD-UJcYqUSk-k-16">
          <mxGeometry relative="1" as="geometry">
            <mxPoint x="641" y="520" as="targetPoint" />
          </mxGeometry>
        </mxCell>
        <mxCell id="rGqXqtwCD-UJcYqUSk-k-16" value="espacio1 = &quot;2espacios&quot;" style="rounded=1;whiteSpace=wrap;html=1;" vertex="1" parent="1">
          <mxGeometry x="341" y="500" width="180" height="40" as="geometry" />
        </mxCell>
        <mxCell id="rGqXqtwCD-UJcYqUSk-k-40" style="edgeStyle=orthogonalEdgeStyle;rounded=0;orthogonalLoop=1;jettySize=auto;html=1;exitX=1;exitY=0.5;exitDx=0;exitDy=0;" edge="1" parent="1" source="rGqXqtwCD-UJcYqUSk-k-17">
          <mxGeometry relative="1" as="geometry">
            <mxPoint x="641" y="620" as="targetPoint" />
          </mxGeometry>
        </mxCell>
        <mxCell id="rGqXqtwCD-UJcYqUSk-k-17" value="espacio1 = &quot;3espacios&quot;" style="rounded=1;whiteSpace=wrap;html=1;" vertex="1" parent="1">
          <mxGeometry x="341" y="600" width="180" height="40" as="geometry" />
        </mxCell>
        <mxCell id="rGqXqtwCD-UJcYqUSk-k-41" style="edgeStyle=orthogonalEdgeStyle;rounded=0;orthogonalLoop=1;jettySize=auto;html=1;exitX=1;exitY=0.5;exitDx=0;exitDy=0;" edge="1" parent="1" source="rGqXqtwCD-UJcYqUSk-k-18">
          <mxGeometry relative="1" as="geometry">
            <mxPoint x="641" y="720" as="targetPoint" />
          </mxGeometry>
        </mxCell>
        <mxCell id="rGqXqtwCD-UJcYqUSk-k-18" value="espacio1 = &quot;4espacios&quot;" style="rounded=1;whiteSpace=wrap;html=1;" vertex="1" parent="1">
          <mxGeometry x="341" y="700" width="180" height="40" as="geometry" />
        </mxCell>
        <mxCell id="rGqXqtwCD-UJcYqUSk-k-42" style="edgeStyle=orthogonalEdgeStyle;rounded=0;orthogonalLoop=1;jettySize=auto;html=1;exitX=1;exitY=0.5;exitDx=0;exitDy=0;" edge="1" parent="1" source="rGqXqtwCD-UJcYqUSk-k-19">
          <mxGeometry relative="1" as="geometry">
            <mxPoint x="641" y="820" as="targetPoint" />
          </mxGeometry>
        </mxCell>
        <mxCell id="rGqXqtwCD-UJcYqUSk-k-19" value="espacio1 = &quot;5espacios&quot;" style="rounded=1;whiteSpace=wrap;html=1;" vertex="1" parent="1">
          <mxGeometry x="341" y="800" width="180" height="40" as="geometry" />
        </mxCell>
        <mxCell id="rGqXqtwCD-UJcYqUSk-k-43" style="edgeStyle=orthogonalEdgeStyle;rounded=0;orthogonalLoop=1;jettySize=auto;html=1;exitX=1;exitY=0.5;exitDx=0;exitDy=0;" edge="1" parent="1" source="rGqXqtwCD-UJcYqUSk-k-20">
          <mxGeometry relative="1" as="geometry">
            <mxPoint x="641" y="920" as="targetPoint" />
          </mxGeometry>
        </mxCell>
        <mxCell id="rGqXqtwCD-UJcYqUSk-k-20" value="espacio1 = &quot;6espacios&quot;" style="rounded=1;whiteSpace=wrap;html=1;" vertex="1" parent="1">
          <mxGeometry x="341" y="900" width="180" height="40" as="geometry" />
        </mxCell>
        <mxCell id="rGqXqtwCD-UJcYqUSk-k-44" style="edgeStyle=orthogonalEdgeStyle;rounded=0;orthogonalLoop=1;jettySize=auto;html=1;exitX=1;exitY=0.5;exitDx=0;exitDy=0;" edge="1" parent="1" source="rGqXqtwCD-UJcYqUSk-k-21">
          <mxGeometry relative="1" as="geometry">
            <mxPoint x="641" y="1020" as="targetPoint" />
          </mxGeometry>
        </mxCell>
        <mxCell id="rGqXqtwCD-UJcYqUSk-k-21" value="espacio1 = &quot;7espacios&quot;" style="rounded=1;whiteSpace=wrap;html=1;" vertex="1" parent="1">
          <mxGeometry x="341" y="1000" width="180" height="40" as="geometry" />
        </mxCell>
        <mxCell id="rGqXqtwCD-UJcYqUSk-k-60" value="" style="edgeStyle=orthogonalEdgeStyle;rounded=0;orthogonalLoop=1;jettySize=auto;html=1;" edge="1" parent="1" source="rGqXqtwCD-UJcYqUSk-k-22" target="rGqXqtwCD-UJcYqUSk-k-59">
          <mxGeometry relative="1" as="geometry" />
        </mxCell>
        <mxCell id="rGqXqtwCD-UJcYqUSk-k-22" value="string _i" style="rounded=0;whiteSpace=wrap;html=1;" vertex="1" parent="1">
          <mxGeometry x="161" y="1140" width="120" height="40" as="geometry" />
        </mxCell>
        <mxCell id="rGqXqtwCD-UJcYqUSk-k-46" value="NO" style="text;html=1;align=center;verticalAlign=middle;whiteSpace=wrap;rounded=0;fontSize=16;" vertex="1" parent="1">
          <mxGeometry x="231" y="560" width="30" height="30" as="geometry" />
        </mxCell>
        <mxCell id="rGqXqtwCD-UJcYqUSk-k-47" value="NO" style="text;html=1;align=center;verticalAlign=middle;whiteSpace=wrap;rounded=0;fontSize=16;" vertex="1" parent="1">
          <mxGeometry x="231" y="660" width="30" height="30" as="geometry" />
        </mxCell>
        <mxCell id="rGqXqtwCD-UJcYqUSk-k-48" value="NO" style="text;html=1;align=center;verticalAlign=middle;whiteSpace=wrap;rounded=0;fontSize=16;" vertex="1" parent="1">
          <mxGeometry x="231" y="760" width="30" height="30" as="geometry" />
        </mxCell>
        <mxCell id="rGqXqtwCD-UJcYqUSk-k-49" value="NO" style="text;html=1;align=center;verticalAlign=middle;whiteSpace=wrap;rounded=0;fontSize=16;" vertex="1" parent="1">
          <mxGeometry x="231" y="860" width="30" height="30" as="geometry" />
        </mxCell>
        <mxCell id="rGqXqtwCD-UJcYqUSk-k-50" value="NO" style="text;html=1;align=center;verticalAlign=middle;whiteSpace=wrap;rounded=0;fontSize=16;" vertex="1" parent="1">
          <mxGeometry x="231" y="960" width="30" height="30" as="geometry" />
        </mxCell>
        <mxCell id="rGqXqtwCD-UJcYqUSk-k-51" value="NO" style="text;html=1;align=center;verticalAlign=middle;whiteSpace=wrap;rounded=0;fontSize=16;" vertex="1" parent="1">
          <mxGeometry x="231" y="1060" width="30" height="30" as="geometry" />
        </mxCell>
        <mxCell id="rGqXqtwCD-UJcYqUSk-k-52" value="SI" style="text;html=1;align=center;verticalAlign=middle;whiteSpace=wrap;rounded=0;fontSize=16;" vertex="1" parent="1">
          <mxGeometry x="281" y="390" width="30" height="30" as="geometry" />
        </mxCell>
        <mxCell id="rGqXqtwCD-UJcYqUSk-k-53" value="SI" style="text;html=1;align=center;verticalAlign=middle;whiteSpace=wrap;rounded=0;fontSize=16;" vertex="1" parent="1">
          <mxGeometry x="281" y="490" width="30" height="30" as="geometry" />
        </mxCell>
        <mxCell id="rGqXqtwCD-UJcYqUSk-k-54" value="SI" style="text;html=1;align=center;verticalAlign=middle;whiteSpace=wrap;rounded=0;fontSize=16;" vertex="1" parent="1">
          <mxGeometry x="281" y="590" width="30" height="30" as="geometry" />
        </mxCell>
        <mxCell id="rGqXqtwCD-UJcYqUSk-k-55" value="SI" style="text;html=1;align=center;verticalAlign=middle;whiteSpace=wrap;rounded=0;fontSize=16;" vertex="1" parent="1">
          <mxGeometry x="281" y="690" width="30" height="30" as="geometry" />
        </mxCell>
        <mxCell id="rGqXqtwCD-UJcYqUSk-k-56" value="SI" style="text;html=1;align=center;verticalAlign=middle;whiteSpace=wrap;rounded=0;fontSize=16;" vertex="1" parent="1">
          <mxGeometry x="281" y="790" width="30" height="30" as="geometry" />
        </mxCell>
        <mxCell id="rGqXqtwCD-UJcYqUSk-k-57" value="SI" style="text;html=1;align=center;verticalAlign=middle;whiteSpace=wrap;rounded=0;fontSize=16;" vertex="1" parent="1">
          <mxGeometry x="281" y="890" width="30" height="30" as="geometry" />
        </mxCell>
        <mxCell id="rGqXqtwCD-UJcYqUSk-k-58" value="SI" style="text;html=1;align=center;verticalAlign=middle;whiteSpace=wrap;rounded=0;fontSize=16;" vertex="1" parent="1">
          <mxGeometry x="281" y="990" width="30" height="30" as="geometry" />
        </mxCell>
        <mxCell id="rGqXqtwCD-UJcYqUSk-k-66" value="" style="edgeStyle=orthogonalEdgeStyle;rounded=0;orthogonalLoop=1;jettySize=auto;html=1;" edge="1" parent="1" source="rGqXqtwCD-UJcYqUSk-k-59" target="rGqXqtwCD-UJcYqUSk-k-61">
          <mxGeometry relative="1" as="geometry" />
        </mxCell>
        <mxCell id="rGqXqtwCD-UJcYqUSk-k-59" value="int i = 1" style="rounded=0;whiteSpace=wrap;html=1;" vertex="1" parent="1">
          <mxGeometry x="161" y="1220" width="120" height="40" as="geometry" />
        </mxCell>
        <mxCell id="rGqXqtwCD-UJcYqUSk-k-67" style="edgeStyle=orthogonalEdgeStyle;rounded=0;orthogonalLoop=1;jettySize=auto;html=1;exitX=0.5;exitY=1;exitDx=0;exitDy=0;entryX=0.5;entryY=0;entryDx=0;entryDy=0;" edge="1" parent="1" source="rGqXqtwCD-UJcYqUSk-k-61" target="rGqXqtwCD-UJcYqUSk-k-62">
          <mxGeometry relative="1" as="geometry" />
        </mxCell>
        <mxCell id="rGqXqtwCD-UJcYqUSk-k-132" style="edgeStyle=orthogonalEdgeStyle;rounded=0;orthogonalLoop=1;jettySize=auto;html=1;exitX=1;exitY=0.5;exitDx=0;exitDy=0;entryX=0.5;entryY=0;entryDx=0;entryDy=0;" edge="1" parent="1" source="rGqXqtwCD-UJcYqUSk-k-61" target="rGqXqtwCD-UJcYqUSk-k-118">
          <mxGeometry relative="1" as="geometry">
            <Array as="points">
              <mxPoint x="1241" y="1340" />
              <mxPoint x="1241" y="2840" />
              <mxPoint x="221" y="2840" />
            </Array>
          </mxGeometry>
        </mxCell>
        <mxCell id="rGqXqtwCD-UJcYqUSk-k-61" value="i &amp;lt;= k" style="rhombus;whiteSpace=wrap;html=1;" vertex="1" parent="1">
          <mxGeometry x="181" y="1300" width="80" height="80" as="geometry" />
        </mxCell>
        <mxCell id="rGqXqtwCD-UJcYqUSk-k-70" style="edgeStyle=orthogonalEdgeStyle;rounded=0;orthogonalLoop=1;jettySize=auto;html=1;exitX=0.5;exitY=1;exitDx=0;exitDy=0;entryX=0.5;entryY=0;entryDx=0;entryDy=0;" edge="1" parent="1" source="rGqXqtwCD-UJcYqUSk-k-62" target="rGqXqtwCD-UJcYqUSk-k-63">
          <mxGeometry relative="1" as="geometry" />
        </mxCell>
        <mxCell id="rGqXqtwCD-UJcYqUSk-k-62" value="int s = 20" style="rounded=1;whiteSpace=wrap;html=1;" vertex="1" parent="1">
          <mxGeometry x="281" y="1420" width="120" height="40" as="geometry" />
        </mxCell>
        <mxCell id="rGqXqtwCD-UJcYqUSk-k-68" style="edgeStyle=orthogonalEdgeStyle;rounded=0;orthogonalLoop=1;jettySize=auto;html=1;exitX=0.5;exitY=1;exitDx=0;exitDy=0;entryX=0.5;entryY=0;entryDx=0;entryDy=0;" edge="1" parent="1" source="rGqXqtwCD-UJcYqUSk-k-63" target="rGqXqtwCD-UJcYqUSk-k-64">
          <mxGeometry relative="1" as="geometry" />
        </mxCell>
        <mxCell id="rGqXqtwCD-UJcYqUSk-k-63" value="int r = 0" style="rounded=1;whiteSpace=wrap;html=1;" vertex="1" parent="1">
          <mxGeometry x="281" y="1480" width="120" height="40" as="geometry" />
        </mxCell>
        <mxCell id="rGqXqtwCD-UJcYqUSk-k-71" style="edgeStyle=orthogonalEdgeStyle;rounded=0;orthogonalLoop=1;jettySize=auto;html=1;exitX=0.5;exitY=1;exitDx=0;exitDy=0;entryX=0.5;entryY=0;entryDx=0;entryDy=0;" edge="1" parent="1" source="rGqXqtwCD-UJcYqUSk-k-64" target="rGqXqtwCD-UJcYqUSk-k-65">
          <mxGeometry relative="1" as="geometry" />
        </mxCell>
        <mxCell id="rGqXqtwCD-UJcYqUSk-k-83" style="edgeStyle=orthogonalEdgeStyle;rounded=0;orthogonalLoop=1;jettySize=auto;html=1;exitX=1;exitY=0.5;exitDx=0;exitDy=0;" edge="1" parent="1" source="rGqXqtwCD-UJcYqUSk-k-64">
          <mxGeometry relative="1" as="geometry">
            <mxPoint x="340.9999999999999" y="1920.0000000000005" as="targetPoint" />
            <Array as="points">
              <mxPoint x="1001" y="1600" />
              <mxPoint x="1001" y="1880" />
              <mxPoint x="341" y="1880" />
            </Array>
          </mxGeometry>
        </mxCell>
        <mxCell id="rGqXqtwCD-UJcYqUSk-k-64" value="r &amp;lt;=14" style="rhombus;whiteSpace=wrap;html=1;" vertex="1" parent="1">
          <mxGeometry x="301" y="1560" width="80" height="80" as="geometry" />
        </mxCell>
        <mxCell id="rGqXqtwCD-UJcYqUSk-k-74" value="" style="edgeStyle=orthogonalEdgeStyle;rounded=0;orthogonalLoop=1;jettySize=auto;html=1;" edge="1" parent="1" source="rGqXqtwCD-UJcYqUSk-k-65" target="rGqXqtwCD-UJcYqUSk-k-73">
          <mxGeometry relative="1" as="geometry" />
        </mxCell>
        <mxCell id="rGqXqtwCD-UJcYqUSk-k-75" value="" style="edgeStyle=orthogonalEdgeStyle;rounded=0;orthogonalLoop=1;jettySize=auto;html=1;" edge="1" parent="1" source="rGqXqtwCD-UJcYqUSk-k-65" target="rGqXqtwCD-UJcYqUSk-k-72">
          <mxGeometry relative="1" as="geometry" />
        </mxCell>
        <mxCell id="rGqXqtwCD-UJcYqUSk-k-65" value="tamaÃ±o espacio1 = s+(s*r)+r" style="rhombus;whiteSpace=wrap;html=1;" vertex="1" parent="1">
          <mxGeometry x="401" y="1680" width="240" height="80" as="geometry" />
        </mxCell>
        <mxCell id="rGqXqtwCD-UJcYqUSk-k-84" style="edgeStyle=orthogonalEdgeStyle;rounded=0;orthogonalLoop=1;jettySize=auto;html=1;exitX=0.5;exitY=1;exitDx=0;exitDy=0;" edge="1" parent="1" source="rGqXqtwCD-UJcYqUSk-k-72">
          <mxGeometry relative="1" as="geometry">
            <mxPoint x="820.8571428571429" y="1880.0000000000005" as="targetPoint" />
          </mxGeometry>
        </mxCell>
        <mxCell id="rGqXqtwCD-UJcYqUSk-k-72" value="espacio1 = espacio1 + &#39;\n&#39;" style="rounded=1;whiteSpace=wrap;html=1;" vertex="1" parent="1">
          <mxGeometry x="721" y="1695" width="200" height="50" as="geometry" />
        </mxCell>
        <mxCell id="rGqXqtwCD-UJcYqUSk-k-82" style="edgeStyle=orthogonalEdgeStyle;rounded=0;orthogonalLoop=1;jettySize=auto;html=1;exitX=0;exitY=0.5;exitDx=0;exitDy=0;entryX=0;entryY=0.5;entryDx=0;entryDy=0;" edge="1" parent="1" source="rGqXqtwCD-UJcYqUSk-k-73" target="rGqXqtwCD-UJcYqUSk-k-64">
          <mxGeometry relative="1" as="geometry">
            <Array as="points">
              <mxPoint x="241" y="1820" />
              <mxPoint x="241" y="1600" />
            </Array>
          </mxGeometry>
        </mxCell>
        <mxCell id="rGqXqtwCD-UJcYqUSk-k-73" value="++r" style="rounded=1;whiteSpace=wrap;html=1;" vertex="1" parent="1">
          <mxGeometry x="461" y="1800" width="120" height="40" as="geometry" />
        </mxCell>
        <mxCell id="rGqXqtwCD-UJcYqUSk-k-76" value="SI" style="text;html=1;align=center;verticalAlign=middle;whiteSpace=wrap;rounded=0;fontSize=16;" vertex="1" parent="1">
          <mxGeometry x="271" y="1370" width="30" height="30" as="geometry" />
        </mxCell>
        <mxCell id="rGqXqtwCD-UJcYqUSk-k-77" value="SI" style="text;html=1;align=center;verticalAlign=middle;whiteSpace=wrap;rounded=0;fontSize=16;" vertex="1" parent="1">
          <mxGeometry x="416" y="1630" width="30" height="30" as="geometry" />
        </mxCell>
        <mxCell id="rGqXqtwCD-UJcYqUSk-k-78" value="SI" style="text;html=1;align=center;verticalAlign=middle;whiteSpace=wrap;rounded=0;fontSize=16;" vertex="1" parent="1">
          <mxGeometry x="661" y="1690" width="30" height="30" as="geometry" />
        </mxCell>
        <mxCell id="rGqXqtwCD-UJcYqUSk-k-97" value="" style="edgeStyle=orthogonalEdgeStyle;rounded=0;orthogonalLoop=1;jettySize=auto;html=1;" edge="1" parent="1" source="rGqXqtwCD-UJcYqUSk-k-80" target="rGqXqtwCD-UJcYqUSk-k-89">
          <mxGeometry relative="1" as="geometry" />
        </mxCell>
        <mxCell id="rGqXqtwCD-UJcYqUSk-k-98" value="" style="edgeStyle=orthogonalEdgeStyle;rounded=0;orthogonalLoop=1;jettySize=auto;html=1;" edge="1" parent="1" source="rGqXqtwCD-UJcYqUSk-k-80" target="rGqXqtwCD-UJcYqUSk-k-88">
          <mxGeometry relative="1" as="geometry" />
        </mxCell>
        <mxCell id="rGqXqtwCD-UJcYqUSk-k-80" value="n y de tamaÃ±o espacio1 = 1" style="rhombus;whiteSpace=wrap;html=1;" vertex="1" parent="1">
          <mxGeometry x="201" y="1920" width="280" height="80" as="geometry" />
        </mxCell>
        <mxCell id="rGqXqtwCD-UJcYqUSk-k-85" value="NO" style="text;html=1;align=center;verticalAlign=middle;whiteSpace=wrap;rounded=0;fontSize=16;" vertex="1" parent="1">
          <mxGeometry x="641" y="1570" width="30" height="30" as="geometry" />
        </mxCell>
        <mxCell id="rGqXqtwCD-UJcYqUSk-k-123" style="edgeStyle=orthogonalEdgeStyle;rounded=0;orthogonalLoop=1;jettySize=auto;html=1;exitX=1;exitY=0.5;exitDx=0;exitDy=0;entryX=0.5;entryY=0;entryDx=0;entryDy=0;" edge="1" parent="1" source="rGqXqtwCD-UJcYqUSk-k-88" target="rGqXqtwCD-UJcYqUSk-k-122">
          <mxGeometry relative="1" as="geometry">
            <Array as="points">
              <mxPoint x="1081" y="1960" />
              <mxPoint x="1081" y="2720" />
              <mxPoint x="221" y="2720" />
            </Array>
          </mxGeometry>
        </mxCell>
        <mxCell id="rGqXqtwCD-UJcYqUSk-k-88" value="espacio1 = espacio1 + i en cadena" style="rounded=1;whiteSpace=wrap;html=1;" vertex="1" parent="1">
          <mxGeometry x="561" y="1935" width="240" height="50" as="geometry" />
        </mxCell>
        <mxCell id="rGqXqtwCD-UJcYqUSk-k-96" value="" style="edgeStyle=orthogonalEdgeStyle;rounded=0;orthogonalLoop=1;jettySize=auto;html=1;" edge="1" parent="1" source="rGqXqtwCD-UJcYqUSk-k-89" target="rGqXqtwCD-UJcYqUSk-k-90">
          <mxGeometry relative="1" as="geometry" />
        </mxCell>
        <mxCell id="rGqXqtwCD-UJcYqUSk-k-99" value="" style="edgeStyle=orthogonalEdgeStyle;rounded=0;orthogonalLoop=1;jettySize=auto;html=1;" edge="1" parent="1" source="rGqXqtwCD-UJcYqUSk-k-89" target="rGqXqtwCD-UJcYqUSk-k-92">
          <mxGeometry relative="1" as="geometry" />
        </mxCell>
        <mxCell id="rGqXqtwCD-UJcYqUSk-k-89" value="tamaÃ±o de i = 1 &amp;amp;&amp;amp; espacio1[tamaÃ±o espacio1 - 1] != &#39;\n&#39;" style="rhombus;whiteSpace=wrap;html=1;" vertex="1" parent="1">
          <mxGeometry x="141" y="2040" width="400" height="80" as="geometry" />
        </mxCell>
        <mxCell id="rGqXqtwCD-UJcYqUSk-k-124" style="edgeStyle=orthogonalEdgeStyle;rounded=0;orthogonalLoop=1;jettySize=auto;html=1;exitX=0.5;exitY=1;exitDx=0;exitDy=0;entryX=0.5;entryY=0;entryDx=0;entryDy=0;" edge="1" parent="1" source="rGqXqtwCD-UJcYqUSk-k-90" target="rGqXqtwCD-UJcYqUSk-k-91">
          <mxGeometry relative="1" as="geometry" />
        </mxCell>
        <mxCell id="rGqXqtwCD-UJcYqUSk-k-90" value="_i = &quot;espacio&quot; + i en cadena" style="rounded=1;whiteSpace=wrap;html=1;" vertex="1" parent="1">
          <mxGeometry x="641" y="2055" width="240" height="50" as="geometry" />
        </mxCell>
        <mxCell id="rGqXqtwCD-UJcYqUSk-k-127" style="edgeStyle=orthogonalEdgeStyle;rounded=0;orthogonalLoop=1;jettySize=auto;html=1;exitX=1;exitY=0.5;exitDx=0;exitDy=0;" edge="1" parent="1" source="rGqXqtwCD-UJcYqUSk-k-91">
          <mxGeometry relative="1" as="geometry">
            <mxPoint x="1081" y="2145.714285714286" as="targetPoint" />
          </mxGeometry>
        </mxCell>
        <mxCell id="rGqXqtwCD-UJcYqUSk-k-91" value="espacio1 = espacio1 + _i" style="rounded=1;whiteSpace=wrap;html=1;" vertex="1" parent="1">
          <mxGeometry x="641" y="2120" width="240" height="50" as="geometry" />
        </mxCell>
        <mxCell id="rGqXqtwCD-UJcYqUSk-k-95" value="" style="edgeStyle=orthogonalEdgeStyle;rounded=0;orthogonalLoop=1;jettySize=auto;html=1;entryX=0;entryY=0.5;entryDx=0;entryDy=0;" edge="1" parent="1" source="rGqXqtwCD-UJcYqUSk-k-92" target="rGqXqtwCD-UJcYqUSk-k-93">
          <mxGeometry relative="1" as="geometry" />
        </mxCell>
        <mxCell id="rGqXqtwCD-UJcYqUSk-k-108" value="" style="edgeStyle=orthogonalEdgeStyle;rounded=0;orthogonalLoop=1;jettySize=auto;html=1;" edge="1" parent="1" source="rGqXqtwCD-UJcYqUSk-k-92" target="rGqXqtwCD-UJcYqUSk-k-101">
          <mxGeometry relative="1" as="geometry" />
        </mxCell>
        <mxCell id="rGqXqtwCD-UJcYqUSk-k-92" value="tamaÃ±o de i = 1 &amp;amp;&amp;amp; espacio1[tamaÃ±o espacio1 - 1] = &#39;\n&#39;" style="rhombus;whiteSpace=wrap;html=1;" vertex="1" parent="1">
          <mxGeometry x="141" y="2215" width="400" height="80" as="geometry" />
        </mxCell>
        <mxCell id="rGqXqtwCD-UJcYqUSk-k-125" style="edgeStyle=orthogonalEdgeStyle;rounded=0;orthogonalLoop=1;jettySize=auto;html=1;exitX=0.5;exitY=1;exitDx=0;exitDy=0;entryX=0.5;entryY=0;entryDx=0;entryDy=0;" edge="1" parent="1" source="rGqXqtwCD-UJcYqUSk-k-93" target="rGqXqtwCD-UJcYqUSk-k-94">
          <mxGeometry relative="1" as="geometry" />
        </mxCell>
        <mxCell id="rGqXqtwCD-UJcYqUSk-k-93" value="_i = &quot;espacio&quot; + i en cadena" style="rounded=1;whiteSpace=wrap;html=1;" vertex="1" parent="1">
          <mxGeometry x="641" y="2230" width="240" height="50" as="geometry" />
        </mxCell>
        <mxCell id="rGqXqtwCD-UJcYqUSk-k-128" style="edgeStyle=orthogonalEdgeStyle;rounded=0;orthogonalLoop=1;jettySize=auto;html=1;exitX=1;exitY=0.5;exitDx=0;exitDy=0;" edge="1" parent="1" source="rGqXqtwCD-UJcYqUSk-k-94">
          <mxGeometry relative="1" as="geometry">
            <mxPoint x="1081" y="2320" as="targetPoint" />
          </mxGeometry>
        </mxCell>
        <mxCell id="rGqXqtwCD-UJcYqUSk-k-94" value="espacio1 = espacio1 + _i" style="rounded=1;whiteSpace=wrap;html=1;" vertex="1" parent="1">
          <mxGeometry x="641" y="2295" width="240" height="50" as="geometry" />
        </mxCell>
        <mxCell id="rGqXqtwCD-UJcYqUSk-k-106" value="" style="edgeStyle=orthogonalEdgeStyle;rounded=0;orthogonalLoop=1;jettySize=auto;html=1;" edge="1" parent="1" source="rGqXqtwCD-UJcYqUSk-k-100" target="rGqXqtwCD-UJcYqUSk-k-105">
          <mxGeometry relative="1" as="geometry" />
        </mxCell>
        <mxCell id="rGqXqtwCD-UJcYqUSk-k-134" style="edgeStyle=orthogonalEdgeStyle;rounded=0;orthogonalLoop=1;jettySize=auto;html=1;exitX=0.5;exitY=1;exitDx=0;exitDy=0;" edge="1" parent="1" source="rGqXqtwCD-UJcYqUSk-k-100">
          <mxGeometry relative="1" as="geometry">
            <mxPoint x="341.47058823529414" y="2720" as="targetPoint" />
          </mxGeometry>
        </mxCell>
        <mxCell id="rGqXqtwCD-UJcYqUSk-k-100" value="tamaÃ±o de i = 2 &amp;amp;&amp;amp; espacio1[tamaÃ±o espacio1 - 1] = &#39;\n&#39;" style="rhombus;whiteSpace=wrap;html=1;" vertex="1" parent="1">
          <mxGeometry x="141" y="2570" width="400" height="80" as="geometry" />
        </mxCell>
        <mxCell id="rGqXqtwCD-UJcYqUSk-k-104" value="" style="edgeStyle=orthogonalEdgeStyle;rounded=0;orthogonalLoop=1;jettySize=auto;html=1;" edge="1" parent="1" source="rGqXqtwCD-UJcYqUSk-k-101" target="rGqXqtwCD-UJcYqUSk-k-102">
          <mxGeometry relative="1" as="geometry" />
        </mxCell>
        <mxCell id="rGqXqtwCD-UJcYqUSk-k-107" value="" style="edgeStyle=orthogonalEdgeStyle;rounded=0;orthogonalLoop=1;jettySize=auto;html=1;" edge="1" parent="1" source="rGqXqtwCD-UJcYqUSk-k-101" target="rGqXqtwCD-UJcYqUSk-k-100">
          <mxGeometry relative="1" as="geometry" />
        </mxCell>
        <mxCell id="rGqXqtwCD-UJcYqUSk-k-101" value="tamaÃ±o de i = 2 &amp;amp;&amp;amp; espacio1[tamaÃ±o espacio1 - 1] != &#39;\n&#39;" style="rhombus;whiteSpace=wrap;html=1;" vertex="1" parent="1">
          <mxGeometry x="141" y="2405" width="400" height="80" as="geometry" />
        </mxCell>
        <mxCell id="rGqXqtwCD-UJcYqUSk-k-126" style="edgeStyle=orthogonalEdgeStyle;rounded=0;orthogonalLoop=1;jettySize=auto;html=1;exitX=0.5;exitY=1;exitDx=0;exitDy=0;entryX=0.5;entryY=0;entryDx=0;entryDy=0;" edge="1" parent="1" source="rGqXqtwCD-UJcYqUSk-k-102" target="rGqXqtwCD-UJcYqUSk-k-103">
          <mxGeometry relative="1" as="geometry" />
        </mxCell>
        <mxCell id="rGqXqtwCD-UJcYqUSk-k-102" value="_i = &quot;espacio&quot; + i en cadena" style="rounded=1;whiteSpace=wrap;html=1;" vertex="1" parent="1">
          <mxGeometry x="641" y="2420" width="240" height="50" as="geometry" />
        </mxCell>
        <mxCell id="rGqXqtwCD-UJcYqUSk-k-129" style="edgeStyle=orthogonalEdgeStyle;rounded=0;orthogonalLoop=1;jettySize=auto;html=1;exitX=1;exitY=0.5;exitDx=0;exitDy=0;" edge="1" parent="1" source="rGqXqtwCD-UJcYqUSk-k-103">
          <mxGeometry relative="1" as="geometry">
            <mxPoint x="1081" y="2510" as="targetPoint" />
          </mxGeometry>
        </mxCell>
        <mxCell id="rGqXqtwCD-UJcYqUSk-k-103" value="espacio1 = espacio1 + _i" style="rounded=1;whiteSpace=wrap;html=1;" vertex="1" parent="1">
          <mxGeometry x="641" y="2485" width="240" height="50" as="geometry" />
        </mxCell>
        <mxCell id="rGqXqtwCD-UJcYqUSk-k-130" style="edgeStyle=orthogonalEdgeStyle;rounded=0;orthogonalLoop=1;jettySize=auto;html=1;exitX=1;exitY=0.5;exitDx=0;exitDy=0;" edge="1" parent="1" source="rGqXqtwCD-UJcYqUSk-k-105">
          <mxGeometry relative="1" as="geometry">
            <mxPoint x="1081" y="2610" as="targetPoint" />
          </mxGeometry>
        </mxCell>
        <mxCell id="rGqXqtwCD-UJcYqUSk-k-105" value="espacio1 = espacio1 + i en cadena" style="rounded=1;whiteSpace=wrap;html=1;" vertex="1" parent="1">
          <mxGeometry x="641" y="2585" width="240" height="50" as="geometry" />
        </mxCell>
        <mxCell id="rGqXqtwCD-UJcYqUSk-k-109" value="SI" style="text;html=1;align=center;verticalAlign=middle;whiteSpace=wrap;rounded=0;fontSize=16;" vertex="1" parent="1">
          <mxGeometry x="506" y="1930" width="30" height="30" as="geometry" />
        </mxCell>
        <mxCell id="rGqXqtwCD-UJcYqUSk-k-110" value="SI" style="text;html=1;align=center;verticalAlign=middle;whiteSpace=wrap;rounded=0;fontSize=16;" vertex="1" parent="1">
          <mxGeometry x="571" y="2050" width="30" height="30" as="geometry" />
        </mxCell>
        <mxCell id="rGqXqtwCD-UJcYqUSk-k-111" value="SI" style="text;html=1;align=center;verticalAlign=middle;whiteSpace=wrap;rounded=0;fontSize=16;" vertex="1" parent="1">
          <mxGeometry x="571" y="2230" width="30" height="30" as="geometry" />
        </mxCell>
        <mxCell id="rGqXqtwCD-UJcYqUSk-k-112" value="SI" style="text;html=1;align=center;verticalAlign=middle;whiteSpace=wrap;rounded=0;fontSize=16;" vertex="1" parent="1">
          <mxGeometry x="571" y="2420" width="30" height="30" as="geometry" />
        </mxCell>
        <mxCell id="rGqXqtwCD-UJcYqUSk-k-113" value="SI" style="text;html=1;align=center;verticalAlign=middle;whiteSpace=wrap;rounded=0;fontSize=16;" vertex="1" parent="1">
          <mxGeometry x="571" y="2580" width="30" height="30" as="geometry" />
        </mxCell>
        <mxCell id="rGqXqtwCD-UJcYqUSk-k-114" value="NO" style="text;html=1;align=center;verticalAlign=middle;whiteSpace=wrap;rounded=0;fontSize=16;" vertex="1" parent="1">
          <mxGeometry x="351" y="2510" width="30" height="30" as="geometry" />
        </mxCell>
        <mxCell id="rGqXqtwCD-UJcYqUSk-k-115" value="NO" style="text;html=1;align=center;verticalAlign=middle;whiteSpace=wrap;rounded=0;fontSize=16;" vertex="1" parent="1">
          <mxGeometry x="351" y="2330" width="30" height="30" as="geometry" />
        </mxCell>
        <mxCell id="rGqXqtwCD-UJcYqUSk-k-116" value="NO" style="text;html=1;align=center;verticalAlign=middle;whiteSpace=wrap;rounded=0;fontSize=16;" vertex="1" parent="1">
          <mxGeometry x="351" y="2150" width="30" height="30" as="geometry" />
        </mxCell>
        <mxCell id="rGqXqtwCD-UJcYqUSk-k-117" value="NO" style="text;html=1;align=center;verticalAlign=middle;whiteSpace=wrap;rounded=0;fontSize=16;" vertex="1" parent="1">
          <mxGeometry x="351" y="2000" width="30" height="30" as="geometry" />
        </mxCell>
        <mxCell id="rGqXqtwCD-UJcYqUSk-k-136" style="edgeStyle=orthogonalEdgeStyle;rounded=0;orthogonalLoop=1;jettySize=auto;html=1;exitX=0.5;exitY=1;exitDx=0;exitDy=0;entryX=0.5;entryY=0;entryDx=0;entryDy=0;" edge="1" parent="1" source="rGqXqtwCD-UJcYqUSk-k-118" target="rGqXqtwCD-UJcYqUSk-k-135">
          <mxGeometry relative="1" as="geometry" />
        </mxCell>
        <mxCell id="rGqXqtwCD-UJcYqUSk-k-118" value="espacio1 = &quot;espacio&quot;" style="shape=parallelogram;perimeter=parallelogramPerimeter;whiteSpace=wrap;html=1;fixedSize=1;" vertex="1" parent="1">
          <mxGeometry x="121" y="2880" width="200" height="40" as="geometry" />
        </mxCell>
        <mxCell id="rGqXqtwCD-UJcYqUSk-k-131" style="edgeStyle=orthogonalEdgeStyle;rounded=0;orthogonalLoop=1;jettySize=auto;html=1;exitX=0;exitY=0.5;exitDx=0;exitDy=0;entryX=0;entryY=0.5;entryDx=0;entryDy=0;" edge="1" parent="1" source="rGqXqtwCD-UJcYqUSk-k-122" target="rGqXqtwCD-UJcYqUSk-k-61">
          <mxGeometry relative="1" as="geometry">
            <Array as="points">
              <mxPoint x="41" y="2780" />
              <mxPoint x="41" y="1340" />
            </Array>
          </mxGeometry>
        </mxCell>
        <mxCell id="rGqXqtwCD-UJcYqUSk-k-122" value="++i" style="rounded=1;whiteSpace=wrap;html=1;" vertex="1" parent="1">
          <mxGeometry x="161" y="2760" width="120" height="40" as="geometry" />
        </mxCell>
        <mxCell id="rGqXqtwCD-UJcYqUSk-k-133" value="NO" style="text;html=1;align=center;verticalAlign=middle;whiteSpace=wrap;rounded=0;fontSize=16;" vertex="1" parent="1">
          <mxGeometry x="666" y="1310" width="30" height="30" as="geometry" />
        </mxCell>
        <mxCell id="rGqXqtwCD-UJcYqUSk-k-135" value="FIN" style="ellipse;whiteSpace=wrap;html=1;" vertex="1" parent="1">
          <mxGeometry x="161" y="2980" width="120" height="80" as="geometry" />
        </mxCell>
      </root>
    </mxGraphModel>
  </diagram>
</mxfile>
